<?xml version="1.0" encoding="UTF-8"?>
<svg version="1.1" xmlns="http://www.w3.org/2000/svg" width="299" height="362">
<path d="M0 0 C0.99 0.495 0.99 0.495 2 1 C1.2542091 8.03322248 -0.67902968 14.74300271 -2.5 21.5625 C-3.13786708 23.95898454 -3.77336702 26.35610065 -4.40625 28.75390625 C-4.82874023 30.33667358 -4.82874023 30.33667358 -5.25976562 31.95141602 C-10.58034468 53.86370846 -4.63052536 74.67626237 6 94 C6.99740524 95.59819521 8.01278669 97.18566401 9.0625 98.75 C11 102 11 102 10.84765625 104.43359375 C9.84882989 107.45769015 8.55899346 109.00623663 6.375 111.3125 C5.64796875 112.09753906 4.9209375 112.88257813 4.171875 113.69140625 C3.45515625 114.45324219 2.7384375 115.21507812 2 116 C-16.65813497 136.46511651 -30.0445776 158.13105606 -29.30859375 186.625 C-28.47641052 202.64711705 -18.0511586 215.2720647 -7 226 C1.45822907 233.3835036 12.3201863 237.87864706 22.9296875 241.3046875 C24.14914063 241.69914063 25.36859375 242.09359375 26.625 242.5 C27.71039063 242.8196875 28.79578125 243.139375 29.9140625 243.46875 C35.69426028 246.33689877 38.73817316 250.7076788 40.90625 256.70703125 C41.45003961 258.40488892 41.98098312 260.10690647 42.5 261.8125 C44.90703052 269.15407622 47.40751364 275.70746728 52 282 C52.53238281 282.73863281 53.06476563 283.47726562 53.61328125 284.23828125 C56.72246077 288.3767064 60.07994151 292.2351916 63.5625 296.0625 C74.02816431 307.58367576 74.02816431 307.58367576 75 314 C40.6107506 322.69879833 5.07380307 321.15880653 -26 303 C-29.84687101 300.52975241 -33.44863959 297.87626155 -37 295 C-38.14855469 294.09701172 -38.14855469 294.09701172 -39.3203125 293.17578125 C-53.36342427 281.50580858 -62.6157447 265.21895506 -68 248 C-68.20866699 247.3591748 -68.41733398 246.71834961 -68.63232422 246.05810547 C-75.11534946 225.961218 -77.36376497 205.39743364 -77.4375 184.375 C-77.4436734 183.63276184 -77.4498468 182.89052368 -77.45620728 182.12579346 C-77.53729369 167.01103454 -75.29342147 152.83160785 -70.5625 138.4375 C-68.51873499 132.00857443 -66.60947559 125.6434471 -65.125 119.0625 C-59.13008228 94.37156768 -47.1281712 71.51750168 -35.19824219 49.26123047 C-34.02731311 47.05154319 -32.88792324 44.82845296 -31.7578125 42.59765625 C-13.95458015 7.67501908 -13.95458015 7.67501908 0 0 Z " fill="#FDFDFD" transform="translate(96,32)"/>
<path d="M0 0 C10.14084618 5.54463532 18.09334976 15.92754755 25 25 C25.72292236 25.94891113 25.72292236 25.94891113 26.46044922 26.91699219 C35.17348594 38.45653911 42.84448644 50.44287758 50 63 C50.62310059 64.09280273 51.24620117 65.18560547 51.88818359 66.31152344 C69.7572169 97.76735958 85.84249627 129.44795416 91.9375 165.4375 C92.07833008 166.23671875 92.21916016 167.0359375 92.36425781 167.859375 C93.42071422 174.6748431 93.42071422 174.6748431 91 178 C61.81459854 176.81459854 61.81459854 176.81459854 54.30078125 169.30078125 C52.48229431 166.08429835 51.36990734 162.67152163 50.1875 159.1875 C46.3468666 148.55794028 41.38399066 142.93763245 31 138 C16.14672361 132.43525138 3.6711915 135.87165458 -10.4375 142.1875 C-12.07525391 142.95126953 -12.07525391 142.95126953 -13.74609375 143.73046875 C-19.75389904 146.07445041 -24.05233302 146.5198234 -29.94726562 144.02001953 C-33.5408292 142.2343501 -36.89312029 140.12968285 -40.25 137.9375 C-41.62920442 137.04922057 -43.00938231 136.16245042 -44.390625 135.27734375 C-45.2882959 134.69327759 -45.2882959 134.69327759 -46.20410156 134.09741211 C-48.08777641 132.94636284 -50.01326749 131.96029049 -52 131 C-51.57755064 126.05917922 -49.0443626 123.19497254 -45.875 119.625 C-45.37581055 119.04919189 -44.87662109 118.47338379 -44.36230469 117.88012695 C-41.23779371 114.30673261 -38.00260331 110.88636783 -34.59375 107.58203125 C-31.54275233 104.55346738 -28.7915346 101.2658774 -26 98 C-24.7625 96.57880859 -24.7625 96.57880859 -23.5 95.12890625 C-6.6373813 75.65308361 8.42167619 54.9029407 8 28 C7.00479378 20.06733683 4.01450338 13.511406 0.109375 6.59375 C-1 4 -1 4 -0.671875 1.65625 C-0.33929688 0.83640625 -0.33929688 0.83640625 0 0 Z " fill="#FDFDFD" transform="translate(188,18)"/>
<path d="M0 0 C8.87597194 0.35503888 17.59341567 1.08913658 26.375 2.4375 C27.61407104 2.62082886 27.61407104 2.62082886 28.87817383 2.80786133 C34.75431705 3.75431705 34.75431705 3.75431705 37 6 C39.6258216 33.08260184 29.47501327 62.72405753 12.5625 83.8125 C11.05590805 85.55408896 9.53489698 87.28330473 8 89 C6.81083984 90.38638672 6.81083984 90.38638672 5.59765625 91.80078125 C-0.08115889 98.28701086 -6.1564081 103.77118821 -13 109 C-13.8971875 109.70125 -14.794375 110.4025 -15.71875 111.125 C-26.69487915 119.45171866 -38.14490052 126.24379994 -52.2734375 124.53125 C-65.34499208 121.98435684 -76.1786975 112.30931879 -84 102 C-90.38088443 92.23502994 -96.03891136 80.94748059 -95 69 C-93.34484803 67.34484803 -91.23532118 67.5166996 -88.9609375 67.203125 C-60.77616313 63.13557668 -33.99221113 53.53921983 -15 31 C-9.73509857 23.83609524 -6.13755571 16.28636508 -3 8 C-2.67902344 7.16339844 -2.35804688 6.32679688 -2.02734375 5.46484375 C-1.33847013 3.64813983 -0.66679838 1.82492189 0 0 Z " fill="#FDFDFD" transform="translate(245,210)"/>
<path d="M0 0 C1.28648437 -0.03738281 2.57296875 -0.07476563 3.8984375 -0.11328125 C9.20773874 0.49333703 13.2296771 3.20237228 16.625 7.3125 C20.7076052 19.56031561 14.67060248 31.40747264 9.30688477 42.25683594 C1.04870032 58.38759606 -10.33028254 71.89166168 -22.375 85.3125 C-22.89626465 85.89692871 -23.4175293 86.48135742 -23.95458984 87.08349609 C-30.40008861 94.28895333 -37.02208327 101.01697174 -44.375 107.3125 C-50.10539078 105.57959832 -51.81874225 102.27441505 -54.796875 97.328125 C-62.46011146 82.68451473 -61.31929827 65.83749347 -56.58642578 50.47045898 C-50.47863473 32.0771493 -38.08018122 15.31575116 -21.375 5.3125 C-14.1892029 1.9000196 -7.97038633 0.15113507 0 0 Z " fill="#FDFDFD" transform="translate(162.375,19.6875)"/>
<path d="M0 0 C3.60692204 1.68011896 6.45335464 4.2751809 9.484375 6.8203125 C12.81979662 9.56596418 16.32590925 11.999874 19.88671875 14.44140625 C22.00232361 15.9074833 24.06448398 17.42672776 26.11328125 18.984375 C24.32187918 25.51772372 20.75678524 30.90438312 17.27734375 36.64453125 C12.28850309 45.0360866 8.86889559 53.38642253 7.05078125 62.984375 C6.88723145 63.81308105 6.72368164 64.64178711 6.55517578 65.49560547 C4.93623042 74.12734829 3.99889409 82.84082948 3.15209961 91.578125 C3.04389893 92.64289063 2.93569824 93.70765625 2.82421875 94.8046875 C2.73446777 95.75617676 2.6447168 96.70766602 2.55224609 97.68798828 C2.11328125 99.984375 2.11328125 99.984375 0.11328125 101.984375 C-11.69774201 103.32376939 -22.30351142 100.95198216 -31.88671875 93.984375 C-32.75296875 93.406875 -33.61921875 92.829375 -34.51171875 92.234375 C-41.90998621 85.22549004 -45.8715916 76.2689361 -46.26171875 66.109375 C-45.3432924 42.56092335 -27.1640848 22.0833031 -12.01171875 5.421875 C-11.53484619 4.8964209 -11.05797363 4.3709668 -10.56665039 3.82958984 C-6.89531982 -0.15092622 -5.42734907 -1.66303864 0 0 Z " fill="#FDFDFD" transform="translate(127.88671875,157.015625)"/>
<path d="M0 0 C1.10939941 0.42039551 2.21879883 0.84079102 3.36181641 1.27392578 C4.50859863 1.6698291 5.65538086 2.06573242 6.83691406 2.47363281 C9.12979873 3.26567332 11.41728793 4.0735293 13.69873047 4.89794922 C17.83891776 6.37174852 22.02599763 7.64536947 26.23681641 8.89892578 C29.95810804 10.03842193 33.44280235 11.15441563 36.86181641 13.02392578 C32.87958426 28.20618584 20.59549171 41.30317603 7.25634766 49.20361328 C-22.24547973 65.02392578 -22.24547973 65.02392578 -37.13818359 65.02392578 C-38.33410669 45.92237627 -32.05671896 28.77967858 -22.26318359 12.58642578 C-21.87694824 11.93601318 -21.49071289 11.28560059 -21.09277344 10.61547852 C-19.86296475 8.66288754 -18.55599452 6.84457808 -17.13818359 5.02392578 C-16.58936523 4.31703613 -16.04054687 3.61014648 -15.47509766 2.88183594 C-10.34990829 -2.67423219 -6.93760518 -2.33000398 0 0 Z " fill="#FDFDFD" transform="translate(187.13818359375,191.97607421875)"/>
<path d="M0 0 C2.95930874 3.29578991 3.9669516 6.45919733 4.27734375 10.8046875 C1.61179861 12.61250772 0.36737696 12.81377952 -2.89453125 12.484375 C-15.93014028 9.55278607 -15.93014028 9.55278607 -21.72265625 5.8046875 C-22.421875 3.67578125 -22.421875 3.67578125 -22.72265625 1.8046875 C-16.07573008 -1.75064511 -6.92410994 -4.80448445 0 0 Z " fill="#FDFDFD" transform="translate(223.72265625,173.1953125)"/>
</svg>
